<svg xmlns="http://www.w3.org/2000/svg" xmlns:xlink="http://www.w3.org/1999/xlink" xmlns:lucid="lucid" width="2291.52" height="1770.4"><g transform="translate(0 0)" lucid:page-tab-id="HWEp-vi-RSFO"><path d="M0 0h2291.52v1770.4H0z" fill="#fff"/><path d="M718.9 85.47c0-4.42 3.6-8 8-8h836.76c4.4 0 8 3.58 8 8v25.15c0 4.42-3.6 8-8 8H726.9c-4.4 0-8-3.58-8-8z" stroke="#000" stroke-opacity="0" stroke-width="2" fill="#fff" fill-opacity="0"/><use xlink:href="#a" transform="matrix(1,0,0,1,722.9071690257708,81.46567187082766) translate(361.347037037037 23.657777777777778)"/><use xlink:href="#b" transform="matrix(1,0,0,1,722.9071690257708,81.46567187082766) translate(424.7174074074074 23.657777777777778)"/><path d="M995.4 117.28h309.35M995.4 117.28h-1M1304.73 117.28h1.02" stroke="#a9afb8" stroke-width="2" fill="none"/><path d="M718.9 126.62c0-4.42 3.6-8 8-8h837.7c4.43 0 8 3.58 8 8v2.85c0 4.4-3.57 8-8 8H726.9c-4.4 0-8-3.6-8-8z" stroke="#000" stroke-opacity="0" stroke-width="2" fill="#fff" fill-opacity="0"/><use xlink:href="#c" transform="matrix(1,0,0,1,722.9071690257713,122.62089582772647) translate(301.8363888888889 14.917037037037037)"/><use xlink:href="#d" transform="matrix(1,0,0,1,722.9071690257713,122.62089582772647) translate(353.1214711934157 14.917037037037037)"/><use xlink:href="#e" transform="matrix(1,0,0,1,722.9071690257713,122.62089582772647) translate(374.3663271604938 14.917037037037037)"/><use xlink:href="#f" transform="matrix(1,0,0,1,722.9071690257713,122.62089582772647) translate(420.25521604938274 14.917037037037037)"/><use xlink:href="#g" transform="matrix(1,0,0,1,722.9071690257713,122.62089582772647) translate(432.70470164609054 14.917037037037037)"/><use xlink:href="#h" transform="matrix(1,0,0,1,722.9071690257713,122.62089582772647) translate(491.2980144032922 14.917037037037037)"/><use xlink:href="#i" transform="matrix(1,0,0,1,722.9071690257713,122.62089582772647) translate(516.791841563786 14.917037037037037)"/><path d="M1300 280h360v264h-360z" stroke="#333" stroke-width="2" fill="#fff"/><path d="M1300 317.6h360m-360 145.5h360" stroke="#333" stroke-width="2" fill="none"/><use xlink:href="#j" transform="matrix(1,0,0,1,1308,288) translate(81.675 14.6)"/><use xlink:href="#k" transform="matrix(1,0,0,1,1308,288) translate(124.575 14.6)"/><use xlink:href="#l" transform="matrix(1,0,0,1,1308,288) translate(135.525 14.6)"/><use xlink:href="#m" transform="matrix(1,0,0,1,1308,288) translate(206.47500000000002 14.6)"/><use xlink:href="#n" transform="matrix(1,0,0,1,1308,288) translate(256.375 14.6)"/><use xlink:href="#o" transform="matrix(1,0,0,1,1312,325.6) translate(5.775 25.39999999999999)"/><use xlink:href="#p" transform="matrix(1,0,0,1,1312,325.6) translate(18 25.39999999999999)"/><use xlink:href="#o" transform="matrix(1,0,0,1,1312,325.6) translate(5.775 46.99999999999999)"/><use xlink:href="#q" transform="matrix(1,0,0,1,1312,325.6) translate(18 46.99999999999999)"/><use xlink:href="#o" transform="matrix(1,0,0,1,1312,325.6) translate(5.775 68.6)"/><use xlink:href="#r" transform="matrix(1,0,0,1,1312,325.6) translate(18 68.6)"/><use xlink:href="#o" transform="matrix(1,0,0,1,1312,325.6) translate(5.775 90.20000000000002)"/><use xlink:href="#s" transform="matrix(1,0,0,1,1312,325.6) translate(18 90.20000000000002)"/><use xlink:href="#o" transform="matrix(1,0,0,1,1312,325.6) translate(5.775 111.80000000000001)"/><use xlink:href="#t" transform="matrix(1,0,0,1,1312,325.6) translate(18 111.80000000000001)"/><use xlink:href="#u" transform="matrix(1,0,0,1,1312,471.1) translate(0 25.299999999999997)"/><use xlink:href="#v" transform="matrix(1,0,0,1,1312,471.1) translate(15.5 25.299999999999997)"/><use xlink:href="#u" transform="matrix(1,0,0,1,1312,471.1) translate(0 46.9)"/><use xlink:href="#w" transform="matrix(1,0,0,1,1312,471.1) translate(15.5 46.9)"/><path d="M1820 600h360v199h-360z" stroke="#333" stroke-width="2" fill="#fff"/><path d="M1820 637.6h360m-360 59.1h360" stroke="#333" stroke-width="2" fill="none"/><use xlink:href="#x" transform="matrix(1,0,0,1,1828,608) translate(119.125 14.6)"/><use xlink:href="#o" transform="matrix(1,0,0,1,1832,645.6) translate(5.775 25.6)"/><use xlink:href="#y" transform="matrix(1,0,0,1,1832,645.6) translate(18 25.6)"/><use xlink:href="#u" transform="matrix(1,0,0,1,1832,704.7) translate(0 25.5)"/><use xlink:href="#z" transform="matrix(1,0,0,1,1832,704.7) translate(15.5 25.5)"/><use xlink:href="#u" transform="matrix(1,0,0,1,1832,704.7) translate(0 47.1)"/><use xlink:href="#A" transform="matrix(1,0,0,1,1832,704.7) translate(15.5 47.1)"/><use xlink:href="#u" transform="matrix(1,0,0,1,1832,704.7) translate(0 68.7)"/><use xlink:href="#B" transform="matrix(1,0,0,1,1832,704.7) translate(15.5 68.7)"/><path d="M900 600h360v156H900z" stroke="#333" stroke-width="2" fill="#fff"/><path d="M900 637.6h360m-360 59.1h360" stroke="#333" stroke-width="2" fill="none"/><use xlink:href="#C" transform="matrix(1,0,0,1,908,608) translate(153.675 14.6)"/><use xlink:href="#o" transform="matrix(1,0,0,1,912,645.6) translate(5.775 25.6)"/><use xlink:href="#D" transform="matrix(1,0,0,1,912,645.6) translate(18 25.6)"/><use xlink:href="#u" transform="matrix(1,0,0,1,912,704.7) translate(0 25.6)"/><use xlink:href="#E" transform="matrix(1,0,0,1,912,704.7) translate(15.5 25.6)"/><path d="M900 960h360v242H900z" stroke="#333" stroke-width="2" fill="#fff"/><path d="M900 997.6h360m-360 102.3h360" stroke="#333" stroke-width="2" fill="none"/><use xlink:href="#F" transform="matrix(1,0,0,1,908,968) translate(136.55 14.6)"/><use xlink:href="#u" transform="matrix(1,0,0,1,912,1005.6) translate(0 25.5)"/><use xlink:href="#G" transform="matrix(1,0,0,1,912,1005.6) translate(15.5 25.5)"/><use xlink:href="#H" transform="matrix(1,0,0,1,912,1005.6) translate(134.4 25.5)"/><use xlink:href="#I" transform="matrix(1,0,0,1,912,1005.6) translate(149.9 25.5)"/><use xlink:href="#u" transform="matrix(1,0,0,1,912,1005.6) translate(0 47.1)"/><use xlink:href="#J" transform="matrix(1,0,0,1,912,1005.6) translate(15.5 47.1)"/><use xlink:href="#K" transform="matrix(1,0,0,1,912,1005.6) translate(0 68.7)"/><use xlink:href="#L" transform="matrix(1,0,0,1,912,1005.6) translate(10.95 68.7)"/><use xlink:href="#u" transform="matrix(1,0,0,1,912,1107.9) translate(0 25.5)"/><use xlink:href="#M" transform="matrix(1,0,0,1,912,1107.9) translate(15.5 25.5)"/><use xlink:href="#K" transform="matrix(1,0,0,1,912,1107.9) translate(0 47.1)"/><use xlink:href="#N" transform="matrix(1,0,0,1,912,1107.9) translate(10.95 47.1)"/><use xlink:href="#K" transform="matrix(1,0,0,1,912,1107.9) translate(0 68.7)"/><use xlink:href="#O" transform="matrix(1,0,0,1,912,1107.9) translate(10.95 68.7)"/><path d="M360 960h360v242H360z" stroke="#333" stroke-width="2" fill="#fff"/><path d="M360 997.6h360m-360 102.3h360" stroke="#333" stroke-width="2" fill="none"/><use xlink:href="#P" transform="matrix(1,0,0,1,368,968) translate(136.05 14.6)"/><use xlink:href="#u" transform="matrix(1,0,0,1,372,1005.6) translate(0 25.5)"/><use xlink:href="#G" transform="matrix(1,0,0,1,372,1005.6) translate(15.5 25.5)"/><use xlink:href="#H" transform="matrix(1,0,0,1,372,1005.6) translate(134.4 25.5)"/><use xlink:href="#I" transform="matrix(1,0,0,1,372,1005.6) translate(149.9 25.5)"/><use xlink:href="#u" transform="matrix(1,0,0,1,372,1005.6) translate(0 47.1)"/><use xlink:href="#J" transform="matrix(1,0,0,1,372,1005.6) translate(15.5 47.1)"/><use xlink:href="#K" transform="matrix(1,0,0,1,372,1005.6) translate(0 68.7)"/><use xlink:href="#L" transform="matrix(1,0,0,1,372,1005.6) translate(10.95 68.7)"/><use xlink:href="#u" transform="matrix(1,0,0,1,372,1107.9) translate(0 25.5)"/><use xlink:href="#M" transform="matrix(1,0,0,1,372,1107.9) translate(15.5 25.5)"/><use xlink:href="#K" transform="matrix(1,0,0,1,372,1107.9) translate(0 47.1)"/><use xlink:href="#N" transform="matrix(1,0,0,1,372,1107.9) translate(10.95 47.1)"/><use xlink:href="#K" transform="matrix(1,0,0,1,372,1107.9) translate(0 68.7)"/><use xlink:href="#O" transform="matrix(1,0,0,1,372,1107.9) translate(10.95 68.7)"/><path d="M1420 960h360v242h-360z" stroke="#333" stroke-width="2" fill="#fff"/><path d="M1420 997.6h360m-360 102.3h360" stroke="#333" stroke-width="2" fill="none"/><use xlink:href="#Q" transform="matrix(1,0,0,1,1428,968) translate(0 14.6)"/><use xlink:href="#u" transform="matrix(1,0,0,1,1432,1005.6) translate(0 25.5)"/><use xlink:href="#G" transform="matrix(1,0,0,1,1432,1005.6) translate(15.5 25.5)"/><use xlink:href="#H" transform="matrix(1,0,0,1,1432,1005.6) translate(134.4 25.5)"/><use xlink:href="#I" transform="matrix(1,0,0,1,1432,1005.6) translate(149.9 25.5)"/><use xlink:href="#u" transform="matrix(1,0,0,1,1432,1005.6) translate(0 47.1)"/><use xlink:href="#J" transform="matrix(1,0,0,1,1432,1005.6) translate(15.5 47.1)"/><use xlink:href="#K" transform="matrix(1,0,0,1,1432,1005.6) translate(0 68.7)"/><use xlink:href="#L" transform="matrix(1,0,0,1,1432,1005.6) translate(10.95 68.7)"/><use xlink:href="#u" transform="matrix(1,0,0,1,1432,1107.9) translate(0 25.5)"/><use xlink:href="#M" transform="matrix(1,0,0,1,1432,1107.9) translate(15.5 25.5)"/><use xlink:href="#K" transform="matrix(1,0,0,1,1432,1107.9) translate(0 47.1)"/><use xlink:href="#N" transform="matrix(1,0,0,1,1432,1107.9) translate(10.95 47.1)"/><use xlink:href="#K" transform="matrix(1,0,0,1,1432,1107.9) translate(0 68.7)"/><use xlink:href="#O" transform="matrix(1,0,0,1,1432,1107.9) translate(10.95 68.7)"/><path d="M160 1379h360v242H160z" stroke="#333" stroke-width="2" fill="#fff"/><path d="M160 1416.6h360m-360 102.3h360" stroke="#333" stroke-width="2" fill="none"/><g><use xlink:href="#R" transform="matrix(1,0,0,1,168,1387) translate(114.57499999999999 14.6)"/><use xlink:href="#S" transform="matrix(1,0,0,1,168,1387) translate(157.52499999999998 14.6)"/></g><g><use xlink:href="#u" transform="matrix(1,0,0,1,172,1424.6) translate(0 25.5)"/><use xlink:href="#G" transform="matrix(1,0,0,1,172,1424.6) translate(15.5 25.5)"/><use xlink:href="#H" transform="matrix(1,0,0,1,172,1424.6) translate(134.4 25.5)"/><use xlink:href="#I" transform="matrix(1,0,0,1,172,1424.6) translate(149.9 25.5)"/><use xlink:href="#u" transform="matrix(1,0,0,1,172,1424.6) translate(0 47.1)"/><use xlink:href="#J" transform="matrix(1,0,0,1,172,1424.6) translate(15.5 47.1)"/><use xlink:href="#K" transform="matrix(1,0,0,1,172,1424.6) translate(0 68.7)"/><use xlink:href="#L" transform="matrix(1,0,0,1,172,1424.6) translate(10.95 68.7)"/></g><g><use xlink:href="#u" transform="matrix(1,0,0,1,172,1526.8999999999999) translate(0 25.5)"/><use xlink:href="#M" transform="matrix(1,0,0,1,172,1526.8999999999999) translate(15.5 25.5)"/><use xlink:href="#K" transform="matrix(1,0,0,1,172,1526.8999999999999) translate(0 47.1)"/><use xlink:href="#N" transform="matrix(1,0,0,1,172,1526.8999999999999) translate(10.95 47.1)"/><use xlink:href="#K" transform="matrix(1,0,0,1,172,1526.8999999999999) translate(0 68.7)"/><use xlink:href="#O" transform="matrix(1,0,0,1,172,1526.8999999999999) translate(10.95 68.7)"/></g><path d="M580 1379h360v242H580z" stroke="#333" stroke-width="2" fill="#fff"/><path d="M580 1416.6h360m-360 102.3h360" stroke="#333" stroke-width="2" fill="none"/><g><use xlink:href="#T" transform="matrix(1,0,0,1,588,1387) translate(99.275 14.6)"/><use xlink:href="#S" transform="matrix(1,0,0,1,588,1387) translate(172.825 14.6)"/></g><g><use xlink:href="#u" transform="matrix(1,0,0,1,592,1424.6) translate(0 25.5)"/><use xlink:href="#G" transform="matrix(1,0,0,1,592,1424.6) translate(15.5 25.5)"/><use xlink:href="#H" transform="matrix(1,0,0,1,592,1424.6) translate(134.4 25.5)"/><use xlink:href="#I" transform="matrix(1,0,0,1,592,1424.6) translate(149.9 25.5)"/><use xlink:href="#u" transform="matrix(1,0,0,1,592,1424.6) translate(0 47.1)"/><use xlink:href="#J" transform="matrix(1,0,0,1,592,1424.6) translate(15.5 47.1)"/><use xlink:href="#K" transform="matrix(1,0,0,1,592,1424.6) translate(0 68.7)"/><use xlink:href="#L" transform="matrix(1,0,0,1,592,1424.6) translate(10.95 68.7)"/></g><g><use xlink:href="#u" transform="matrix(1,0,0,1,592,1526.8999999999999) translate(0 25.5)"/><use xlink:href="#M" transform="matrix(1,0,0,1,592,1526.8999999999999) translate(15.5 25.5)"/><use xlink:href="#K" transform="matrix(1,0,0,1,592,1526.8999999999999) translate(0 47.1)"/><use xlink:href="#N" transform="matrix(1,0,0,1,592,1526.8999999999999) translate(10.95 47.1)"/><use xlink:href="#K" transform="matrix(1,0,0,1,592,1526.8999999999999) translate(0 68.7)"/><use xlink:href="#O" transform="matrix(1,0,0,1,592,1526.8999999999999) translate(10.95 68.7)"/></g><path d="M1220 1379h360v242h-360z" stroke="#333" stroke-width="2" fill="#fff"/><path d="M1220 1416.6h360m-360 102.3h360" stroke="#333" stroke-width="2" fill="none"/><g><use xlink:href="#R" transform="matrix(1,0,0,1,1228,1387) translate(114.57499999999999 14.6)"/><use xlink:href="#S" transform="matrix(1,0,0,1,1228,1387) translate(157.52499999999998 14.6)"/></g><g><use xlink:href="#u" transform="matrix(1,0,0,1,1232,1424.6) translate(0 25.5)"/><use xlink:href="#G" transform="matrix(1,0,0,1,1232,1424.6) translate(15.5 25.5)"/><use xlink:href="#H" transform="matrix(1,0,0,1,1232,1424.6) translate(134.4 25.5)"/><use xlink:href="#I" transform="matrix(1,0,0,1,1232,1424.6) translate(149.9 25.5)"/><use xlink:href="#u" transform="matrix(1,0,0,1,1232,1424.6) translate(0 47.1)"/><use xlink:href="#J" transform="matrix(1,0,0,1,1232,1424.6) translate(15.5 47.1)"/><use xlink:href="#K" transform="matrix(1,0,0,1,1232,1424.6) translate(0 68.7)"/><use xlink:href="#L" transform="matrix(1,0,0,1,1232,1424.6) translate(10.95 68.7)"/></g><g><use xlink:href="#u" transform="matrix(1,0,0,1,1232,1526.8999999999999) translate(0 25.5)"/><use xlink:href="#M" transform="matrix(1,0,0,1,1232,1526.8999999999999) translate(15.5 25.5)"/><use xlink:href="#K" transform="matrix(1,0,0,1,1232,1526.8999999999999) translate(0 47.1)"/><use xlink:href="#N" transform="matrix(1,0,0,1,1232,1526.8999999999999) translate(10.95 47.1)"/><use xlink:href="#K" transform="matrix(1,0,0,1,1232,1526.8999999999999) translate(0 68.7)"/><use xlink:href="#O" transform="matrix(1,0,0,1,1232,1526.8999999999999) translate(10.95 68.7)"/></g><path d="M1620 1379h360v242h-360z" stroke="#333" stroke-width="2" fill="#fff"/><path d="M1620 1416.6h360m-360 102.3h360" stroke="#333" stroke-width="2" fill="none"/><g><use xlink:href="#T" transform="matrix(1,0,0,1,1628,1387) translate(99.275 14.6)"/><use xlink:href="#S" transform="matrix(1,0,0,1,1628,1387) translate(172.825 14.6)"/></g><g><use xlink:href="#u" transform="matrix(1,0,0,1,1632,1424.6) translate(0 25.5)"/><use xlink:href="#G" transform="matrix(1,0,0,1,1632,1424.6) translate(15.5 25.5)"/><use xlink:href="#H" transform="matrix(1,0,0,1,1632,1424.6) translate(134.4 25.5)"/><use xlink:href="#I" transform="matrix(1,0,0,1,1632,1424.6) translate(149.9 25.5)"/><use xlink:href="#u" transform="matrix(1,0,0,1,1632,1424.6) translate(0 47.1)"/><use xlink:href="#J" transform="matrix(1,0,0,1,1632,1424.6) translate(15.5 47.1)"/><use xlink:href="#K" transform="matrix(1,0,0,1,1632,1424.6) translate(0 68.7)"/><use xlink:href="#L" transform="matrix(1,0,0,1,1632,1424.6) translate(10.95 68.7)"/></g><g><use xlink:href="#u" transform="matrix(1,0,0,1,1632,1526.8999999999999) translate(0 25.5)"/><use xlink:href="#M" transform="matrix(1,0,0,1,1632,1526.8999999999999) translate(15.5 25.5)"/><use xlink:href="#K" transform="matrix(1,0,0,1,1632,1526.8999999999999) translate(0 47.1)"/><use xlink:href="#N" transform="matrix(1,0,0,1,1632,1526.8999999999999) translate(10.95 47.1)"/><use xlink:href="#K" transform="matrix(1,0,0,1,1632,1526.8999999999999) translate(0 68.7)"/><use xlink:href="#O" transform="matrix(1,0,0,1,1632,1526.8999999999999) translate(10.95 68.7)"/></g><path d="M1080 598.5V424c0-6.63 5.37-12 12-12h184" stroke="#333" fill="none"/><path d="M1080.5 599h-1v-.5h1" fill="#333"/><path d="M1298.02 412l-21.52 12.73v-25.46z" stroke="#333" fill="#fff"/><path d="M2000 598.5V424c0-6.63-5.37-12-12-12h-304" stroke="#333" fill="none"/><path d="M2000.5 599h-1v-.5h1" fill="#333"/><path d="M1661.98 412l21.52-12.73v25.46z" stroke="#333" fill="#fff"/><path d="M400 568.5h360v219H400z" stroke="#333" stroke-width="2" fill="#fff"/><path d="M400 627.7h360" stroke="#333" stroke-width="2" fill="none"/><g><use xlink:href="#U" transform="matrix(1,0,0,1,408,576.5) translate(113.57499999999999 14.799999999999999)"/><use xlink:href="#V" transform="matrix(1,0,0,1,408,576.5) translate(149.575 36.4)"/></g><g><use xlink:href="#u" transform="matrix(1,0,0,1,412,635.7) translate(0 65.3)"/><use xlink:href="#W" transform="matrix(1,0,0,1,412,635.7) translate(15.5 65.3)"/><use xlink:href="#X" transform="matrix(1,0,0,1,412,635.7) translate(0 86.9)"/><use xlink:href="#Y" transform="matrix(1,0,0,1,412,635.7) translate(20.5 86.9)"/></g><path d="M898.5 678h-9.54m-9.54 0h-19.1m-9.53 0h-19.1m-9.53 0h-19.1m-9.53 0H784" stroke="#333" fill="none"/><path d="M899 678.5h-.5v-1h.5" fill="#333"/><path d="M761.98 678l21.52-12.73v25.46z" stroke="#333" fill="#fff"/><path d="M1080 958.5V780" stroke="#333" fill="none"/><path d="M1080.5 959h-1v-.5h1" fill="#333"/><path d="M1080 757.98l12.73 21.52h-25.46z" stroke="#333" fill="#fff"/><path d="M540 958.5V870c0-6.63 5.37-12 12-12h516c6.63 0 12-5.37 12-12v-66" stroke="#333" fill="none"/><path d="M540.5 959h-1v-.5h1" fill="#333"/><path d="M1080 757.98l12.73 21.52h-25.46z" stroke="#333" fill="#fff"/><path d="M1600 958.5V870c0-6.63-5.37-12-12-12h-496c-6.63 0-12-5.37-12-12v-66" stroke="#333" fill="none"/><path d="M1600.5 959h-1v-.5h1" fill="#333"/><path d="M1080 757.98l12.73 21.52h-25.46z" stroke="#333" fill="#fff"/><path d="M340 1377.5v-75c0-6.63 5.37-12 12-12h176c6.63 0 12-5.37 12-12V1226" stroke="#333" fill="none"/><path d="M340.5 1378h-1v-.5h1" fill="#333"/><path d="M540 1203.98l12.73 21.52h-25.46z" stroke="#333" fill="#fff"/><path d="M760 1377.5v-75c0-6.63-5.37-12-12-12H552c-6.63 0-12-5.37-12-12V1226" stroke="#333" fill="none"/><path d="M760.5 1378h-1v-.5h1" fill="#333"/><path d="M540 1203.98l12.73 21.52h-25.46z" stroke="#333" fill="#fff"/><path d="M1400 1377.5v-75c0-6.63 5.37-12 12-12h176c6.63 0 12-5.37 12-12V1226" stroke="#333" fill="none"/><path d="M1400.5 1378h-1v-.5h1" fill="#333"/><path d="M1600 1203.98l12.73 21.52h-25.46z" stroke="#333" fill="#fff"/><path d="M1800 1377.5v-75c0-6.63-5.37-12-12-12h-176c-6.63 0-12-5.37-12-12V1226" stroke="#333" fill="none"/><path d="M1800.5 1378h-1v-.5h1" fill="#333"/><path d="M1600 1203.98l12.73 21.52h-25.46z" stroke="#333" fill="#fff"/><path d="M1261.5 1081h156.6" stroke="#333" fill="none"/><path d="M1261.5 1081.5h-.5v-1h.5" fill="#333"/><path d="M1400.8 1091.18l17.22-10.18-17.22-10.18M898.5 1081H721.9" stroke="#333" fill="none"/><path d="M899 1081.5h-.5v-1h.5" fill="#333"/><path d="M739.2 1070.82L721.98 1081l17.22 10.18" stroke="#333" fill="none"/><path d="M860 1038h240v60H860z" stroke="#000" stroke-opacity="0" stroke-width="2" fill="#fff" fill-opacity="0"/><g><use xlink:href="#Z" transform="matrix(1,0,0,1,865,1043) translate(0 28.6)"/></g><path d="M740 1038h240v60H740z" stroke="#000" stroke-opacity="0" stroke-width="2" fill="#fff" fill-opacity="0"/><g><use xlink:href="#aa" transform="matrix(1,0,0,1,745,1043) translate(0 28.6)"/><use xlink:href="#ab" transform="matrix(1,0,0,1,745,1043) translate(15 28.6)"/><use xlink:href="#ac" transform="matrix(1,0,0,1,745,1043) translate(30 28.6)"/></g><path d="M1260 1038h240v60h-240z" stroke="#000" stroke-opacity="0" stroke-width="2" fill="#fff" fill-opacity="0"/><g><use xlink:href="#Z" transform="matrix(1,0,0,1,1265,1043) translate(0 28.6)"/></g><path d="M1360 1038h240v60h-240z" stroke="#000" stroke-opacity="0" stroke-width="2" fill="#fff" fill-opacity="0"/><g><use xlink:href="#ad" transform="matrix(1,0,0,1,1365,1043) translate(0 28.6)"/></g><defs><path fill="#a9afb8" d="M238-95c0 69-44 99-111 99C63 4 22-25 22-93v-155h51v151c-1 38 19 59 55 60 90 1 49-130 58-211h52v153" id="ae"/><path fill="#a9afb8" d="M230 0l2-204L168 0h-37L68-204 70 0H24v-248h70l56 185 57-185h69V0h-46" id="af"/><path fill="#a9afb8" d="M24 0v-248h52v208h133V0H24" id="ag"/><g id="a"><use transform="matrix(0.0728395061728395,0,0,0.0728395061728395,0,0)" xlink:href="#ae"/><use transform="matrix(0.0728395061728395,0,0,0.0728395061728395,18.86543209876543,0)" xlink:href="#af"/><use transform="matrix(0.0728395061728395,0,0,0.0728395061728395,40.644444444444446,0)" xlink:href="#ag"/></g><path fill="#a9afb8" d="M190-63c-7 42-38 67-86 67-59 0-84-38-90-98-12-110 154-137 174-36l-49 2c-2-19-15-32-35-32-30 0-35 28-38 64-6 74 65 87 74 30" id="ah"/><path fill="#a9afb8" d="M25 0v-261h50V0H25" id="ai"/><path fill="#a9afb8" d="M133-34C117-15 103 5 69 4 32 3 11-16 11-54c-1-60 55-63 116-61 1-26-3-47-28-47-18 1-26 9-28 27l-52-2c7-38 36-58 82-57s74 22 75 68l1 82c-1 14 12 18 25 15v27c-30 8-71 5-69-32zm-48 3c29 0 43-24 42-57-32 0-66-3-65 30 0 17 8 27 23 27" id="aj"/><path fill="#a9afb8" d="M137-138c1-29-70-34-71-4 15 46 118 7 119 86 1 83-164 76-172 9l43-7c4 19 20 25 44 25 33 8 57-30 24-41C81-84 22-81 20-136c-2-80 154-74 161-7" id="ak"/><g id="b"><use transform="matrix(0.0728395061728395,0,0,0.0728395061728395,0,0)" xlink:href="#ah"/><use transform="matrix(0.0728395061728395,0,0,0.0728395061728395,14.5679012345679,0)" xlink:href="#ai"/><use transform="matrix(0.0728395061728395,0,0,0.0728395061728395,21.85185185185185,0)" xlink:href="#aj"/><use transform="matrix(0.0728395061728395,0,0,0.0728395061728395,36.41975308641975,0)" xlink:href="#ak"/><use transform="matrix(0.0728395061728395,0,0,0.0728395061728395,50.98765432098765,0)" xlink:href="#ak"/></g><path fill="#a9afb8" d="M212-179c-10-28-35-45-73-45-59 0-87 40-87 99 0 60 29 101 89 101 43 0 62-24 78-52l27 14C228-24 195 4 139 4 59 4 22-46 18-125c-6-104 99-153 187-111 19 9 31 26 39 46" id="al"/><path fill="#a9afb8" d="M243-209c14 53-45 68-69 34v-21c11 7 19 15 32 16 20 1 19-28 11-41h23zM100 5C9 9 34-111 31-197h32c7 65-25 172 44 174 76 1 53-101 56-174h32V0h-32v-30C148-9 132 4 100 5" id="am"/><path fill="#a9afb8" d="M85-288l49 66h-27l-57-66h35zm131 79c14 53-45 68-69 34v-21c11 7 19 15 32 16 20 1 19-28 11-41h23zM167-98c0-41-18-76-56-76s-56 34-56 76 19 76 56 76 56-35 56-76zM21-98c0-61 32-104 90-104s91 43 91 104S170 5 111 5C53 5 21-37 21-98" id="an"/><path fill="#a9afb8" d="M117-194c89-4 53 116 60 194h-32v-121c0-31-8-49-39-48C34-167 62-67 57 0H25l-1-190h30c1 10-1 24 2 32 11-22 29-35 61-36" id="ao"/><path fill="#a9afb8" d="M177-190C167-65 218 103 67 71c-23-6-38-20-44-43l32-5c15 47 100 32 89-28v-30C133-14 115 1 83 1 29 1 15-40 15-95c0-56 16-97 71-98 29-1 48 16 59 35 1-10 0-23 2-32h30zM94-22c36 0 50-32 50-73 0-42-14-75-50-75-39 0-46 34-46 75s6 73 46 73" id="ap"/><g id="c"><use transform="matrix(0.04248971193415638,0,0,0.04248971193415638,0,0)" xlink:href="#al"/><use transform="matrix(0.04248971193415638,0,0,0.04248971193415638,11.004835390946502,0)" xlink:href="#am"/><use transform="matrix(0.04248971193415638,0,0,0.04248971193415638,20.692489711934158,0)" xlink:href="#an"/><use transform="matrix(0.04248971193415638,0,0,0.04248971193415638,30.04022633744856,0)" xlink:href="#ao"/><use transform="matrix(0.04248971193415638,0,0,0.04248971193415638,38.538168724279835,0)" xlink:href="#ap"/></g><path fill="#a9afb8" d="M30 0v-248h33v221h125V0H30" id="aq"/><path fill="#a9afb8" d="M100-194c63 0 86 42 84 106H49c0 40 14 67 53 68 26 1 43-12 49-29l28 8c-11 28-37 45-77 45C44 4 14-33 15-96c1-61 26-98 85-98zm52 81c6-60-76-77-97-28-3 7-6 17-6 28h103zm-32-149c12 18 30 30 39 51-31 2-38-20-57-30-20 10-27 32-59 30 9-22 29-33 41-51h36" id="ar"/><g id="d"><use transform="matrix(0.04248971193415638,0,0,0.04248971193415638,0,0)" xlink:href="#aq"/><use transform="matrix(0.04248971193415638,0,0,0.04248971193415638,8.497942386831275,0)" xlink:href="#ar"/></g><path fill="#a9afb8" d="M140-251c81 0 123 46 123 126C263-53 228-8 163 1c7 30 30 48 69 40v23c-55 16-95-15-103-61C56-3 17-48 17-125c0-80 42-126 123-126zm0 227c63 0 89-41 89-101s-29-99-89-99c-61 0-89 39-89 99S79-25 140-24" id="as"/><path fill="#a9afb8" d="M84 4C-5 8 30-112 23-190h32v120c0 31 7 50 39 49 72-2 45-101 50-169h31l1 190h-30c-1-10 1-25-2-33-11 22-28 36-60 37" id="at"/><path fill="#a9afb8" d="M94-269h33l37 47h-25l-29-31-29 31H56zm90-36h32l-40 47h-27zM166-98c0-41-18-76-56-76s-56 34-56 76 19 76 56 76 56-35 56-76zM20-98c0-61 32-104 90-104s91 43 91 104S169 5 110 5C52 5 20-37 20-98" id="au"/><path fill="#a9afb8" d="M96-169c-40 0-48 33-48 73s9 75 48 75c24 0 41-14 43-38l32 2c-6 37-31 61-74 61-59 0-76-41-82-99-10-93 101-131 147-64 4 7 5 14 7 22l-32 3c-4-21-16-35-41-35" id="av"/><g id="e"><use transform="matrix(0.04248971193415638,0,0,0.04248971193415638,0,0)" xlink:href="#as"/><use transform="matrix(0.04248971193415638,0,0,0.04248971193415638,11.897119341563785,0)" xlink:href="#at"/><use transform="matrix(0.04248971193415638,0,0,0.04248971193415638,20.39506172839506,0)" xlink:href="#au"/><use transform="matrix(0.04248971193415638,0,0,0.04248971193415638,29.742798353909464,0)" xlink:href="#av"/></g><path fill="#a9afb8" d="M32 76v-337h29V76H32" id="aw"/><use transform="matrix(0.04248971193415638,0,0,0.04248971193415638,0,0)" xlink:href="#aw" id="f"/><path fill="#a9afb8" d="M153-248C145-148 188 4 80 4 36 3 13-21 6-62l32-5c4 25 16 42 43 43 27 0 39-20 39-49v-147H72v-28h81" id="ax"/><path fill="#a9afb8" d="M141-36C126-15 110 5 73 4 37 3 15-17 15-53c-1-64 63-63 125-63 3-35-9-54-41-54-24 1-41 7-42 31l-33-3c5-37 33-52 76-52 45 0 72 20 72 64v82c-1 20 7 32 28 27v20c-31 9-61-2-59-35zM48-53c0 20 12 33 32 33 41-3 63-29 60-74-43 2-92-5-92 41" id="ay"/><path fill="#a9afb8" d="M114-163C36-179 61-72 57 0H25l-1-190h30c1 12-1 29 2 39 6-27 23-49 58-41v29" id="az"/><path fill="#a9afb8" d="M179-190L93 31C79 59 56 82 12 73V49c39 6 53-20 64-50L1-190h34L92-34l54-156h33" id="aA"/><g id="g"><use transform="matrix(0.04248971193415638,0,0,0.04248971193415638,0,0)" xlink:href="#ax"/><use transform="matrix(0.04248971193415638,0,0,0.04248971193415638,7.648148148148148,0)" xlink:href="#ay"/><use transform="matrix(0.04248971193415638,0,0,0.04248971193415638,16.14609053497942,0)" xlink:href="#ao"/><use transform="matrix(0.04248971193415638,0,0,0.04248971193415638,24.644032921810698,0)" xlink:href="#at"/><use transform="matrix(0.04248971193415638,0,0,0.04248971193415638,33.141975308641975,0)" xlink:href="#ay"/><use transform="matrix(0.04248971193415638,0,0,0.04248971193415638,41.63991769547325,0)" xlink:href="#az"/><use transform="matrix(0.04248971193415638,0,0,0.04248971193415638,46.69619341563786,0)" xlink:href="#aA"/></g><path fill="#a9afb8" d="M101-251c82-7 93 87 43 132L82-64C71-53 59-42 53-27h129V0H18c2-99 128-94 128-182 0-28-16-43-45-43s-46 15-49 41l-32-3c6-41 34-60 81-64" id="aB"/><path fill="#a9afb8" d="M27 0v-27h64v-190l-56 39v-29l58-41h29v221h61V0H27" id="aC"/><path fill="#a9afb8" d="M68-38c1 34 0 65-14 84H32c9-13 17-26 17-46H33v-38h35" id="aD"/><g id="h"><use transform="matrix(0.04248971193415638,0,0,0.04248971193415638,0,0)" xlink:href="#aB"/><use transform="matrix(0.04248971193415638,0,0,0.04248971193415638,8.497942386831275,0)" xlink:href="#aC"/><use transform="matrix(0.04248971193415638,0,0,0.04248971193415638,16.99588477366255,0)" xlink:href="#aD"/></g><path fill="#a9afb8" d="M101-251c68 0 85 55 85 127S166 4 100 4C33 4 14-52 14-124c0-73 17-127 87-127zm-1 229c47 0 54-49 54-102s-4-102-53-102c-51 0-55 48-55 102 0 53 5 102 54 102" id="aE"/><g id="i"><use transform="matrix(0.04248971193415638,0,0,0.04248971193415638,0,0)" xlink:href="#aB"/><use transform="matrix(0.04248971193415638,0,0,0.04248971193415638,8.497942386831275,0)" xlink:href="#aE"/><use transform="matrix(0.04248971193415638,0,0,0.04248971193415638,16.99588477366255,0)" xlink:href="#aB"/><use transform="matrix(0.04248971193415638,0,0,0.04248971193415638,25.493827160493822,0)" xlink:href="#aB"/></g><path fill="#333" d="M232-93c-1 65-40 97-104 97C67 4 28-28 28-90v-158h33c8 89-33 224 67 224 102 0 64-133 71-224h33v155" id="aF"/><path fill="#333" d="M135-143c-3-34-86-38-87 0 15 53 115 12 119 90S17 21 10-45l28-5c4 36 97 45 98 0-10-56-113-15-118-90-4-57 82-63 122-42 12 7 21 19 24 35" id="aG"/><path fill="#333" d="M100-194c63 0 86 42 84 106H49c0 40 14 67 53 68 26 1 43-12 49-29l28 8c-11 28-37 45-77 45C44 4 14-33 15-96c1-61 26-98 85-98zm52 81c6-60-76-77-97-28-3 7-6 17-6 28h103" id="aH"/><path fill="#333" d="M114-163C36-179 61-72 57 0H25l-1-190h30c1 12-1 29 2 39 6-27 23-49 58-41v29" id="aI"/><g id="j"><use transform="matrix(0.05,0,0,0.05,0,0)" xlink:href="#aF"/><use transform="matrix(0.05,0,0,0.05,12.950000000000001,0)" xlink:href="#aG"/><use transform="matrix(0.05,0,0,0.05,21.950000000000003,0)" xlink:href="#aH"/><use transform="matrix(0.05,0,0,0.05,31.950000000000003,0)" xlink:href="#aI"/></g><path fill="#333" d="M87 75C49 33 22-17 22-94c0-76 28-126 65-167h31c-38 41-64 92-64 168S80 34 118 75H87" id="aJ"/><use transform="matrix(0.05,0,0,0.05,0,0)" xlink:href="#aJ" id="k"/><path fill="#333" d="M205 0l-28-72H64L36 0H1l101-248h38L239 0h-34zm-38-99l-47-123c-12 45-31 82-46 123h93" id="aK"/><path fill="#333" d="M115-194c53 0 69 39 70 98 0 66-23 100-70 100C84 3 66-7 56-30L54 0H23l1-261h32v101c10-23 28-34 59-34zm-8 174c40 0 45-34 45-75 0-40-5-75-45-74-42 0-51 32-51 76 0 43 10 73 51 73" id="aL"/><path fill="#333" d="M59-47c-2 24 18 29 38 22v24C64 9 27 4 27-40v-127H5v-23h24l9-43h21v43h35v23H59v120" id="aM"/><path fill="#333" d="M141-36C126-15 110 5 73 4 37 3 15-17 15-53c-1-64 63-63 125-63 3-35-9-54-41-54-24 1-41 7-42 31l-33-3c5-37 33-52 76-52 45 0 72 20 72 64v82c-1 20 7 32 28 27v20c-31 9-61-2-59-35zM48-53c0 20 12 33 32 33 41-3 63-29 60-74-43 2-92-5-92 41" id="aN"/><path fill="#333" d="M96-169c-40 0-48 33-48 73s9 75 48 75c24 0 41-14 43-38l32 2c-6 37-31 61-74 61-59 0-76-41-82-99-10-93 101-131 147-64 4 7 5 14 7 22l-32 3c-4-21-16-35-41-35" id="aO"/><g id="l"><use transform="matrix(0.05,0,0,0.05,0,0)" xlink:href="#aK"/><use transform="matrix(0.05,0,0,0.05,12,0)" xlink:href="#aL"/><use transform="matrix(0.05,0,0,0.05,22,0)" xlink:href="#aG"/><use transform="matrix(0.05,0,0,0.05,31,0)" xlink:href="#aM"/><use transform="matrix(0.05,0,0,0.05,36,0)" xlink:href="#aI"/><use transform="matrix(0.05,0,0,0.05,41.95,0)" xlink:href="#aN"/><use transform="matrix(0.05,0,0,0.05,51.95,0)" xlink:href="#aO"/><use transform="matrix(0.05,0,0,0.05,60.95,0)" xlink:href="#aM"/></g><path fill="#333" d="M212-179c-10-28-35-45-73-45-59 0-87 40-87 99 0 60 29 101 89 101 43 0 62-24 78-52l27 14C228-24 195 4 139 4 59 4 22-46 18-125c-6-104 99-153 187-111 19 9 31 26 39 46" id="aP"/><path fill="#333" d="M24 0v-261h32V0H24" id="aQ"/><g id="m"><use transform="matrix(0.05,0,0,0.05,0,0)" xlink:href="#aP"/><use transform="matrix(0.05,0,0,0.05,12.950000000000001,0)" xlink:href="#aQ"/><use transform="matrix(0.05,0,0,0.05,16.900000000000002,0)" xlink:href="#aN"/><use transform="matrix(0.05,0,0,0.05,26.900000000000002,0)" xlink:href="#aG"/><use transform="matrix(0.05,0,0,0.05,35.900000000000006,0)" xlink:href="#aG"/></g><path fill="#333" d="M33-261c38 41 65 92 65 168S71 34 33 75H2C39 34 66-17 66-93S39-220 2-261h31" id="aR"/><use transform="matrix(0.05,0,0,0.05,0,0)" xlink:href="#aR" id="n"/><path fill="#333" d="M18-113h94v29H18v-29" id="aS"/><use transform="matrix(0.05,0,0,0.05,0,0)" xlink:href="#aS" id="o"/><path fill="#333" d="M84 4C-5 8 30-112 23-190h32v120c0 31 7 50 39 49 72-2 45-101 50-169h31l1 190h-30c-1-10 1-25-2-33-11 22-28 36-60 37" id="aT"/><path fill="#333" d="M33 0v-248h34V0H33" id="aU"/><path fill="#333" d="M30-248c118-7 216 8 213 122C240-48 200 0 122 0H30v-248zM63-27c89 8 146-16 146-99s-60-101-146-95v194" id="aV"/><g id="p"><use transform="matrix(0.05,0,0,0.05,0,0)" xlink:href="#aT"/><use transform="matrix(0.05,0,0,0.05,10,0)" xlink:href="#aG"/><use transform="matrix(0.05,0,0,0.05,19,0)" xlink:href="#aH"/><use transform="matrix(0.05,0,0,0.05,29,0)" xlink:href="#aI"/><use transform="matrix(0.05,0,0,0.05,34.95,0)" xlink:href="#aU"/><use transform="matrix(0.05,0,0,0.05,39.95,0)" xlink:href="#aV"/></g><path fill="#333" d="M101-234c-31-9-42 10-38 44h38v23H63V0H32v-167H5v-23h27c-7-52 17-82 69-68v24" id="aW"/><path fill="#333" d="M24-231v-30h32v30H24zM24 0v-190h32V0H24" id="aX"/><path fill="#333" d="M190 0L58-211 59 0H30v-248h39L202-35l-2-213h31V0h-41" id="aY"/><path fill="#333" d="M210-169c-67 3-38 105-44 169h-31v-121c0-29-5-50-35-48C34-165 62-65 56 0H25l-1-190h30c1 10-1 24 2 32 10-44 99-50 107 0 11-21 27-35 58-36 85-2 47 119 55 194h-31v-121c0-29-5-49-35-48" id="aZ"/><g id="q"><use transform="matrix(0.05,0,0,0.05,0,0)" xlink:href="#aW"/><use transform="matrix(0.05,0,0,0.05,5,0)" xlink:href="#aX"/><use transform="matrix(0.05,0,0,0.05,8.95,0)" xlink:href="#aI"/><use transform="matrix(0.05,0,0,0.05,14.899999999999999,0)" xlink:href="#aG"/><use transform="matrix(0.05,0,0,0.05,23.9,0)" xlink:href="#aM"/><use transform="matrix(0.05,0,0,0.05,28.899999999999995,0)" xlink:href="#aY"/><use transform="matrix(0.05,0,0,0.05,41.85,0)" xlink:href="#aN"/><use transform="matrix(0.05,0,0,0.05,51.85,0)" xlink:href="#aZ"/><use transform="matrix(0.05,0,0,0.05,66.8,0)" xlink:href="#aH"/></g><g id="r"><use transform="matrix(0.05,0,0,0.05,0,0)" xlink:href="#aQ"/><use transform="matrix(0.05,0,0,0.05,3.95,0)" xlink:href="#aN"/><use transform="matrix(0.05,0,0,0.05,13.949999999999998,0)" xlink:href="#aG"/><use transform="matrix(0.05,0,0,0.05,22.95,0)" xlink:href="#aM"/><use transform="matrix(0.05,0,0,0.05,27.950000000000003,0)" xlink:href="#aY"/><use transform="matrix(0.05,0,0,0.05,40.9,0)" xlink:href="#aN"/><use transform="matrix(0.05,0,0,0.05,50.9,0)" xlink:href="#aZ"/><use transform="matrix(0.05,0,0,0.05,65.85,0)" xlink:href="#aH"/></g><g id="s"><use transform="matrix(0.05,0,0,0.05,0,0)" xlink:href="#aH"/><use transform="matrix(0.05,0,0,0.05,10,0)" xlink:href="#aZ"/><use transform="matrix(0.05,0,0,0.05,24.950000000000003,0)" xlink:href="#aN"/><use transform="matrix(0.05,0,0,0.05,34.95,0)" xlink:href="#aX"/><use transform="matrix(0.05,0,0,0.05,38.900000000000006,0)" xlink:href="#aQ"/></g><path fill="#333" d="M115-194c55 1 70 41 70 98S169 2 115 4C84 4 66-9 55-30l1 105H24l-1-265h31l2 30c10-21 28-34 59-34zm-8 174c40 0 45-34 45-75s-6-73-45-74c-42 0-51 32-51 76 0 43 10 73 51 73" id="ba"/><path fill="#333" d="M106-169C34-169 62-67 57 0H25v-261h32l-1 103c12-21 28-36 61-36 89 0 53 116 60 194h-32v-121c2-32-8-49-39-48" id="bb"/><path fill="#333" d="M100-194c62-1 85 37 85 99 1 63-27 99-86 99S16-35 15-95c0-66 28-99 85-99zM99-20c44 1 53-31 53-75 0-43-8-75-51-75s-53 32-53 75 10 74 51 75" id="bc"/><path fill="#333" d="M117-194c89-4 53 116 60 194h-32v-121c0-31-8-49-39-48C34-167 62-67 57 0H25l-1-190h30c1 10-1 24 2 32 11-22 29-35 61-36" id="bd"/><g id="t"><use transform="matrix(0.05,0,0,0.05,0,0)" xlink:href="#ba"/><use transform="matrix(0.05,0,0,0.05,10,0)" xlink:href="#bb"/><use transform="matrix(0.05,0,0,0.05,20,0)" xlink:href="#bc"/><use transform="matrix(0.05,0,0,0.05,30,0)" xlink:href="#bd"/><use transform="matrix(0.05,0,0,0.05,40,0)" xlink:href="#aH"/></g><path fill="#333" d="M118-107v75H92v-75H18v-26h74v-75h26v75h74v26h-74" id="be"/><use transform="matrix(0.05,0,0,0.05,0,0)" xlink:href="#be" id="u"/><path fill="#333" d="M85-194c31 0 48 13 60 33l-1-100h32l1 261h-30c-2-10 0-23-3-31C134-8 116 4 85 4 32 4 16-35 15-94c0-66 23-100 70-100zm9 24c-40 0-46 34-46 75 0 40 6 74 45 74 42 0 51-32 51-76 0-42-9-74-50-73" id="bf"/><path fill="#333" d="M30-248c87 1 191-15 191 75 0 78-77 80-158 76V0H30v-248zm33 125c57 0 124 11 124-50 0-59-68-47-124-48v98" id="bg"/><g id="v"><use transform="matrix(0.05,0,0,0.05,0,0)" xlink:href="#aT"/><use transform="matrix(0.05,0,0,0.05,10,0)" xlink:href="#ba"/><use transform="matrix(0.05,0,0,0.05,20,0)" xlink:href="#bf"/><use transform="matrix(0.05,0,0,0.05,30,0)" xlink:href="#aN"/><use transform="matrix(0.05,0,0,0.05,40,0)" xlink:href="#aM"/><use transform="matrix(0.05,0,0,0.05,45,0)" xlink:href="#aH"/><use transform="matrix(0.05,0,0,0.05,55,0)" xlink:href="#bg"/><use transform="matrix(0.05,0,0,0.05,67,0)" xlink:href="#bb"/><use transform="matrix(0.05,0,0,0.05,77,0)" xlink:href="#bc"/><use transform="matrix(0.05,0,0,0.05,87,0)" xlink:href="#bd"/><use transform="matrix(0.05,0,0,0.05,97,0)" xlink:href="#aH"/><use transform="matrix(0.05,0,0,0.05,107,0)" xlink:href="#aJ"/><use transform="matrix(0.05,0,0,0.05,112.95,0)" xlink:href="#aR"/></g><path fill="#333" d="M108 0H70L1-190h34L89-25l56-165h34" id="bh"/><path fill="#333" d="M179-190L93 31C79 59 56 82 12 73V49c39 6 53-20 64-50L1-190h34L92-34l54-156h33" id="bi"/><path fill="#333" d="M30 0v-248h33v221h125V0H30" id="bj"/><path fill="#333" d="M177-190C167-65 218 103 67 71c-23-6-38-20-44-43l32-5c15 47 100 32 89-28v-30C133-14 115 1 83 1 29 1 15-40 15-95c0-56 16-97 71-98 29-1 48 16 59 35 1-10 0-23 2-32h30zM94-22c36 0 50-32 50-73 0-42-14-75-50-75-39 0-46 34-46 75s6 73 46 73" id="bk"/><g id="w"><use transform="matrix(0.05,0,0,0.05,0,0)" xlink:href="#bh"/><use transform="matrix(0.05,0,0,0.05,9,0)" xlink:href="#aH"/><use transform="matrix(0.05,0,0,0.05,19,0)" xlink:href="#aI"/><use transform="matrix(0.05,0,0,0.05,24.95,0)" xlink:href="#aX"/><use transform="matrix(0.05,0,0,0.05,28.899999999999995,0)" xlink:href="#aW"/><use transform="matrix(0.05,0,0,0.05,33.9,0)" xlink:href="#bi"/><use transform="matrix(0.05,0,0,0.05,42.9,0)" xlink:href="#bj"/><use transform="matrix(0.05,0,0,0.05,52.900000000000006,0)" xlink:href="#bc"/><use transform="matrix(0.05,0,0,0.05,62.900000000000006,0)" xlink:href="#bk"/><use transform="matrix(0.05,0,0,0.05,72.9,0)" xlink:href="#aX"/><use transform="matrix(0.05,0,0,0.05,76.85000000000001,0)" xlink:href="#bd"/><use transform="matrix(0.05,0,0,0.05,86.85000000000001,0)" xlink:href="#aJ"/><use transform="matrix(0.05,0,0,0.05,92.80000000000001,0)" xlink:href="#aR"/></g><g id="x"><use transform="matrix(0.05,0,0,0.05,0,0)" xlink:href="#aK"/><use transform="matrix(0.05,0,0,0.05,12,0)" xlink:href="#bf"/><use transform="matrix(0.05,0,0,0.05,22,0)" xlink:href="#aZ"/><use transform="matrix(0.05,0,0,0.05,36.95,0)" xlink:href="#aX"/><use transform="matrix(0.05,0,0,0.05,40.900000000000006,0)" xlink:href="#bd"/><use transform="matrix(0.05,0,0,0.05,50.900000000000006,0)" xlink:href="#aX"/><use transform="matrix(0.05,0,0,0.05,54.85,0)" xlink:href="#aG"/><use transform="matrix(0.05,0,0,0.05,63.85,0)" xlink:href="#aM"/><use transform="matrix(0.05,0,0,0.05,68.85000000000001,0)" xlink:href="#aI"/><use transform="matrix(0.05,0,0,0.05,74.80000000000001,0)" xlink:href="#aN"/><use transform="matrix(0.05,0,0,0.05,84.80000000000001,0)" xlink:href="#aM"/><use transform="matrix(0.05,0,0,0.05,89.80000000000001,0)" xlink:href="#bc"/><use transform="matrix(0.05,0,0,0.05,99.80000000000001,0)" xlink:href="#aI"/></g><path fill="#333" d="M194 0L95-120 63-95V0H30v-248h33v124l119-124h40L117-140 236 0h-42" id="bl"/><g id="y"><use transform="matrix(0.05,0,0,0.05,0,0)" xlink:href="#aN"/><use transform="matrix(0.05,0,0,0.05,10,0)" xlink:href="#aO"/><use transform="matrix(0.05,0,0,0.05,19,0)" xlink:href="#aO"/><use transform="matrix(0.05,0,0,0.05,28,0)" xlink:href="#aH"/><use transform="matrix(0.05,0,0,0.05,38,0)" xlink:href="#aG"/><use transform="matrix(0.05,0,0,0.05,47,0)" xlink:href="#aG"/><use transform="matrix(0.05,0,0,0.05,56,0)" xlink:href="#bl"/><use transform="matrix(0.05,0,0,0.05,68,0)" xlink:href="#aH"/><use transform="matrix(0.05,0,0,0.05,78,0)" xlink:href="#bi"/></g><g id="z"><use transform="matrix(0.05,0,0,0.05,0,0)" xlink:href="#aN"/><use transform="matrix(0.05,0,0,0.05,10,0)" xlink:href="#bf"/><use transform="matrix(0.05,0,0,0.05,20,0)" xlink:href="#bf"/><use transform="matrix(0.05,0,0,0.05,30,0)" xlink:href="#bg"/><use transform="matrix(0.05,0,0,0.05,42,0)" xlink:href="#aI"/><use transform="matrix(0.05,0,0,0.05,47.95,0)" xlink:href="#bc"/><use transform="matrix(0.05,0,0,0.05,57.95,0)" xlink:href="#bf"/><use transform="matrix(0.05,0,0,0.05,67.95,0)" xlink:href="#aT"/><use transform="matrix(0.05,0,0,0.05,77.95,0)" xlink:href="#aO"/><use transform="matrix(0.05,0,0,0.05,86.95,0)" xlink:href="#aM"/><use transform="matrix(0.05,0,0,0.05,91.95,0)" xlink:href="#aJ"/><use transform="matrix(0.05,0,0,0.05,97.9,0)" xlink:href="#aR"/></g><g id="A"><use transform="matrix(0.05,0,0,0.05,0,0)" xlink:href="#aT"/><use transform="matrix(0.05,0,0,0.05,10,0)" xlink:href="#ba"/><use transform="matrix(0.05,0,0,0.05,20,0)" xlink:href="#bf"/><use transform="matrix(0.05,0,0,0.05,30,0)" xlink:href="#aN"/><use transform="matrix(0.05,0,0,0.05,40,0)" xlink:href="#aM"/><use transform="matrix(0.05,0,0,0.05,45,0)" xlink:href="#aH"/><use transform="matrix(0.05,0,0,0.05,55,0)" xlink:href="#aP"/><use transform="matrix(0.05,0,0,0.05,67.95,0)" xlink:href="#aN"/><use transform="matrix(0.05,0,0,0.05,77.95,0)" xlink:href="#aM"/><use transform="matrix(0.05,0,0,0.05,82.95,0)" xlink:href="#aN"/><use transform="matrix(0.05,0,0,0.05,92.95,0)" xlink:href="#aQ"/><use transform="matrix(0.05,0,0,0.05,96.9,0)" xlink:href="#bc"/><use transform="matrix(0.05,0,0,0.05,106.9,0)" xlink:href="#bk"/><use transform="matrix(0.05,0,0,0.05,116.9,0)" xlink:href="#aJ"/><use transform="matrix(0.05,0,0,0.05,122.85000000000001,0)" xlink:href="#aR"/></g><g id="B"><use transform="matrix(0.05,0,0,0.05,0,0)" xlink:href="#aI"/><use transform="matrix(0.05,0,0,0.05,5.95,0)" xlink:href="#aH"/><use transform="matrix(0.05,0,0,0.05,15.949999999999998,0)" xlink:href="#aZ"/><use transform="matrix(0.05,0,0,0.05,30.899999999999995,0)" xlink:href="#bc"/><use transform="matrix(0.05,0,0,0.05,40.9,0)" xlink:href="#bh"/><use transform="matrix(0.05,0,0,0.05,49.9,0)" xlink:href="#aH"/><use transform="matrix(0.05,0,0,0.05,59.900000000000006,0)" xlink:href="#aJ"/><use transform="matrix(0.05,0,0,0.05,65.85,0)" xlink:href="#aR"/></g><path fill="#333" d="M185-189c-5-48-123-54-124 2 14 75 158 14 163 119 3 78-121 87-175 55-17-10-28-26-33-46l33-7c5 56 141 63 141-1 0-78-155-14-162-118-5-82 145-84 179-34 5 7 8 16 11 25" id="bm"/><g id="C"><use transform="matrix(0.05,0,0,0.05,0,0)" xlink:href="#bm"/><use transform="matrix(0.05,0,0,0.05,12,0)" xlink:href="#aM"/><use transform="matrix(0.05,0,0,0.05,17,0)" xlink:href="#aN"/><use transform="matrix(0.05,0,0,0.05,27,0)" xlink:href="#aW"/><use transform="matrix(0.05,0,0,0.05,31.649999999999995,0)" xlink:href="#aW"/></g><g id="D"><use transform="matrix(0.05,0,0,0.05,0,0)" xlink:href="#bf"/><use transform="matrix(0.05,0,0,0.05,10,0)" xlink:href="#aH"/><use transform="matrix(0.05,0,0,0.05,20,0)" xlink:href="#ba"/><use transform="matrix(0.05,0,0,0.05,30,0)" xlink:href="#aN"/><use transform="matrix(0.05,0,0,0.05,40,0)" xlink:href="#aI"/><use transform="matrix(0.05,0,0,0.05,45.95,0)" xlink:href="#aM"/><use transform="matrix(0.05,0,0,0.05,50.95,0)" xlink:href="#aZ"/><use transform="matrix(0.05,0,0,0.05,65.9,0)" xlink:href="#aH"/><use transform="matrix(0.05,0,0,0.05,75.9,0)" xlink:href="#bd"/><use transform="matrix(0.05,0,0,0.05,85.9,0)" xlink:href="#aM"/></g><g id="E"><use transform="matrix(0.05,0,0,0.05,0,0)" xlink:href="#aQ"/><use transform="matrix(0.05,0,0,0.05,3.95,0)" xlink:href="#bc"/><use transform="matrix(0.05,0,0,0.05,13.949999999999998,0)" xlink:href="#bk"/><use transform="matrix(0.05,0,0,0.05,23.95,0)" xlink:href="#aX"/><use transform="matrix(0.05,0,0,0.05,27.899999999999995,0)" xlink:href="#bd"/><use transform="matrix(0.05,0,0,0.05,37.9,0)" xlink:href="#aJ"/><use transform="matrix(0.05,0,0,0.05,43.85,0)" xlink:href="#aR"/></g><path fill="#333" d="M240 0l2-218c-23 76-54 145-80 218h-23L58-218 59 0H30v-248h44l77 211c21-75 51-140 76-211h43V0h-30" id="bn"/><g id="F"><use transform="matrix(0.05,0,0,0.05,0,0)" xlink:href="#bn"/><use transform="matrix(0.05,0,0,0.05,14.950000000000001,0)" xlink:href="#aN"/><use transform="matrix(0.05,0,0,0.05,24.950000000000003,0)" xlink:href="#bd"/><use transform="matrix(0.05,0,0,0.05,34.95,0)" xlink:href="#aN"/><use transform="matrix(0.05,0,0,0.05,44.95,0)" xlink:href="#bk"/><use transform="matrix(0.05,0,0,0.05,54.95,0)" xlink:href="#aH"/><use transform="matrix(0.05,0,0,0.05,64.95,0)" xlink:href="#aI"/></g><path fill="#333" d="M27 0v-27h64v-190l-56 39v-29l58-41h29v221h61V0H27" id="bo"/><path fill="#333" d="M33-154v-36h34v36H33zM33 0v-36h34V0H33" id="bp"/><g id="G"><use transform="matrix(0.05,0,0,0.05,0,0)" xlink:href="#aN"/><use transform="matrix(0.05,0,0,0.05,10,0)" xlink:href="#aM"/><use transform="matrix(0.05,0,0,0.05,15,0)" xlink:href="#aM"/><use transform="matrix(0.05,0,0,0.05,20,0)" xlink:href="#aI"/><use transform="matrix(0.05,0,0,0.05,25.950000000000003,0)" xlink:href="#aX"/><use transform="matrix(0.05,0,0,0.05,29.899999999999995,0)" xlink:href="#aL"/><use transform="matrix(0.05,0,0,0.05,39.9,0)" xlink:href="#aT"/><use transform="matrix(0.05,0,0,0.05,49.9,0)" xlink:href="#aM"/><use transform="matrix(0.05,0,0,0.05,54.900000000000006,0)" xlink:href="#aH"/><use transform="matrix(0.05,0,0,0.05,64.9,0)" xlink:href="#bo"/><use transform="matrix(0.05,0,0,0.05,74.9,0)" xlink:href="#bp"/><use transform="matrix(0.05,0,0,0.05,79.9,0)" xlink:href="#aM"/><use transform="matrix(0.05,0,0,0.05,84.9,0)" xlink:href="#bi"/><use transform="matrix(0.05,0,0,0.05,93.9,0)" xlink:href="#ba"/><use transform="matrix(0.05,0,0,0.05,103.9,0)" xlink:href="#aH"/></g><path fill="#333" d="M18-150v-26h174v26H18zm0 90v-26h174v26H18" id="bq"/><use transform="matrix(0.05,0,0,0.05,0,0)" xlink:href="#bq" id="H"/><path fill="#333" d="M137 0h-34L2-248h35l83 218 83-218h36" id="br"/><g id="I"><use transform="matrix(0.05,0,0,0.05,0,0)" xlink:href="#bf"/><use transform="matrix(0.05,0,0,0.05,10,0)" xlink:href="#aH"/><use transform="matrix(0.05,0,0,0.05,20,0)" xlink:href="#aW"/><use transform="matrix(0.05,0,0,0.05,25,0)" xlink:href="#aN"/><use transform="matrix(0.05,0,0,0.05,35,0)" xlink:href="#aT"/><use transform="matrix(0.05,0,0,0.05,45,0)" xlink:href="#aQ"/><use transform="matrix(0.05,0,0,0.05,48.95,0)" xlink:href="#aM"/><use transform="matrix(0.05,0,0,0.05,53.95,0)" xlink:href="#br"/><use transform="matrix(0.05,0,0,0.05,64.6,0)" xlink:href="#aN"/><use transform="matrix(0.05,0,0,0.05,74.6,0)" xlink:href="#aQ"/><use transform="matrix(0.05,0,0,0.05,78.55,0)" xlink:href="#aT"/><use transform="matrix(0.05,0,0,0.05,88.55,0)" xlink:href="#aH"/></g><path fill="#333" d="M101-251c82-7 93 87 43 132L82-64C71-53 59-42 53-27h129V0H18c2-99 128-94 128-182 0-28-16-43-45-43s-46 15-49 41l-32-3c6-41 34-60 81-64" id="bs"/><g id="J"><use transform="matrix(0.05,0,0,0.05,0,0)" xlink:href="#aN"/><use transform="matrix(0.05,0,0,0.05,10,0)" xlink:href="#aM"/><use transform="matrix(0.05,0,0,0.05,15,0)" xlink:href="#aM"/><use transform="matrix(0.05,0,0,0.05,20,0)" xlink:href="#aI"/><use transform="matrix(0.05,0,0,0.05,25.950000000000003,0)" xlink:href="#aX"/><use transform="matrix(0.05,0,0,0.05,29.899999999999995,0)" xlink:href="#aL"/><use transform="matrix(0.05,0,0,0.05,39.9,0)" xlink:href="#aT"/><use transform="matrix(0.05,0,0,0.05,49.9,0)" xlink:href="#aM"/><use transform="matrix(0.05,0,0,0.05,54.900000000000006,0)" xlink:href="#aH"/><use transform="matrix(0.05,0,0,0.05,64.9,0)" xlink:href="#bs"/><use transform="matrix(0.05,0,0,0.05,74.9,0)" xlink:href="#bp"/><use transform="matrix(0.05,0,0,0.05,79.9,0)" xlink:href="#aM"/><use transform="matrix(0.05,0,0,0.05,84.9,0)" xlink:href="#bi"/><use transform="matrix(0.05,0,0,0.05,93.9,0)" xlink:href="#ba"/><use transform="matrix(0.05,0,0,0.05,103.9,0)" xlink:href="#aH"/></g><path fill="#333" d="M16-82v-28h88v28H16" id="bt"/><use transform="matrix(0.05,0,0,0.05,0,0)" xlink:href="#bt" id="K"/><path fill="#333" d="M126-127c33 6 58 20 58 59 0 88-139 92-164 29-3-8-5-16-6-25l32-3c6 27 21 44 54 44 32 0 52-15 52-46 0-38-36-46-79-43v-28c39 1 72-4 72-42 0-27-17-43-46-43-28 0-47 15-49 41l-32-3c6-42 35-63 81-64 48-1 79 21 79 65 0 36-21 52-52 59" id="bu"/><g id="L"><use transform="matrix(0.05,0,0,0.05,0,0)" xlink:href="#aN"/><use transform="matrix(0.05,0,0,0.05,10,0)" xlink:href="#aM"/><use transform="matrix(0.05,0,0,0.05,15,0)" xlink:href="#aM"/><use transform="matrix(0.05,0,0,0.05,20,0)" xlink:href="#aI"/><use transform="matrix(0.05,0,0,0.05,25.950000000000003,0)" xlink:href="#aX"/><use transform="matrix(0.05,0,0,0.05,29.899999999999995,0)" xlink:href="#aL"/><use transform="matrix(0.05,0,0,0.05,39.9,0)" xlink:href="#aT"/><use transform="matrix(0.05,0,0,0.05,49.9,0)" xlink:href="#aM"/><use transform="matrix(0.05,0,0,0.05,54.900000000000006,0)" xlink:href="#aH"/><use transform="matrix(0.05,0,0,0.05,64.9,0)" xlink:href="#bu"/><use transform="matrix(0.05,0,0,0.05,74.9,0)" xlink:href="#bp"/><use transform="matrix(0.05,0,0,0.05,79.9,0)" xlink:href="#aM"/><use transform="matrix(0.05,0,0,0.05,84.9,0)" xlink:href="#bi"/><use transform="matrix(0.05,0,0,0.05,93.9,0)" xlink:href="#ba"/><use transform="matrix(0.05,0,0,0.05,103.9,0)" xlink:href="#aH"/></g><path fill="#333" d="M127-220V0H93v-220H8v-28h204v28h-85" id="bv"/><g id="M"><use transform="matrix(0.05,0,0,0.05,0,0)" xlink:href="#bc"/><use transform="matrix(0.05,0,0,0.05,10,0)" xlink:href="#ba"/><use transform="matrix(0.05,0,0,0.05,20,0)" xlink:href="#aH"/><use transform="matrix(0.05,0,0,0.05,30,0)" xlink:href="#aI"/><use transform="matrix(0.05,0,0,0.05,35.95,0)" xlink:href="#aN"/><use transform="matrix(0.05,0,0,0.05,45.95,0)" xlink:href="#aM"/><use transform="matrix(0.05,0,0,0.05,50.95,0)" xlink:href="#aX"/><use transform="matrix(0.05,0,0,0.05,54.900000000000006,0)" xlink:href="#bc"/><use transform="matrix(0.05,0,0,0.05,64.9,0)" xlink:href="#bd"/><use transform="matrix(0.05,0,0,0.05,74.9,0)" xlink:href="#bo"/><use transform="matrix(0.05,0,0,0.05,84.9,0)" xlink:href="#aJ"/><use transform="matrix(0.05,0,0,0.05,90.85000000000001,0)" xlink:href="#ba"/><use transform="matrix(0.05,0,0,0.05,100.85000000000001,0)" xlink:href="#aN"/><use transform="matrix(0.05,0,0,0.05,110.85000000000001,0)" xlink:href="#aI"/><use transform="matrix(0.05,0,0,0.05,116.80000000000001,0)" xlink:href="#aN"/><use transform="matrix(0.05,0,0,0.05,126.80000000000001,0)" xlink:href="#aZ"/><use transform="matrix(0.05,0,0,0.05,141.75,0)" xlink:href="#aG"/><use transform="matrix(0.05,0,0,0.05,150.75,0)" xlink:href="#aR"/><use transform="matrix(0.05,0,0,0.05,156.7,0)" xlink:href="#bp"/><use transform="matrix(0.05,0,0,0.05,161.7,0)" xlink:href="#aI"/><use transform="matrix(0.05,0,0,0.05,167.64999999999998,0)" xlink:href="#aH"/><use transform="matrix(0.05,0,0,0.05,177.64999999999998,0)" xlink:href="#aM"/><use transform="matrix(0.05,0,0,0.05,182.64999999999998,0)" xlink:href="#aT"/><use transform="matrix(0.05,0,0,0.05,192.64999999999998,0)" xlink:href="#aI"/><use transform="matrix(0.05,0,0,0.05,198.59999999999997,0)" xlink:href="#bd"/><use transform="matrix(0.05,0,0,0.05,208.59999999999997,0)" xlink:href="#bv"/><use transform="matrix(0.05,0,0,0.05,218.54999999999995,0)" xlink:href="#bi"/><use transform="matrix(0.05,0,0,0.05,227.54999999999995,0)" xlink:href="#ba"/><use transform="matrix(0.05,0,0,0.05,237.54999999999995,0)" xlink:href="#aH"/></g><g id="N"><use transform="matrix(0.05,0,0,0.05,0,0)" xlink:href="#bc"/><use transform="matrix(0.05,0,0,0.05,10,0)" xlink:href="#ba"/><use transform="matrix(0.05,0,0,0.05,20,0)" xlink:href="#aH"/><use transform="matrix(0.05,0,0,0.05,30,0)" xlink:href="#aI"/><use transform="matrix(0.05,0,0,0.05,35.95,0)" xlink:href="#aN"/><use transform="matrix(0.05,0,0,0.05,45.95,0)" xlink:href="#aM"/><use transform="matrix(0.05,0,0,0.05,50.95,0)" xlink:href="#aX"/><use transform="matrix(0.05,0,0,0.05,54.900000000000006,0)" xlink:href="#bc"/><use transform="matrix(0.05,0,0,0.05,64.9,0)" xlink:href="#bd"/><use transform="matrix(0.05,0,0,0.05,74.9,0)" xlink:href="#bs"/><use transform="matrix(0.05,0,0,0.05,84.9,0)" xlink:href="#aJ"/><use transform="matrix(0.05,0,0,0.05,90.85000000000001,0)" xlink:href="#ba"/><use transform="matrix(0.05,0,0,0.05,100.85000000000001,0)" xlink:href="#aN"/><use transform="matrix(0.05,0,0,0.05,110.85000000000001,0)" xlink:href="#aI"/><use transform="matrix(0.05,0,0,0.05,116.80000000000001,0)" xlink:href="#aN"/><use transform="matrix(0.05,0,0,0.05,126.80000000000001,0)" xlink:href="#aZ"/><use transform="matrix(0.05,0,0,0.05,141.75,0)" xlink:href="#aG"/><use transform="matrix(0.05,0,0,0.05,150.75,0)" xlink:href="#aR"/></g><g id="O"><use transform="matrix(0.05,0,0,0.05,0,0)" xlink:href="#bc"/><use transform="matrix(0.05,0,0,0.05,10,0)" xlink:href="#ba"/><use transform="matrix(0.05,0,0,0.05,20,0)" xlink:href="#aH"/><use transform="matrix(0.05,0,0,0.05,30,0)" xlink:href="#aI"/><use transform="matrix(0.05,0,0,0.05,35.95,0)" xlink:href="#aN"/><use transform="matrix(0.05,0,0,0.05,45.95,0)" xlink:href="#aM"/><use transform="matrix(0.05,0,0,0.05,50.95,0)" xlink:href="#aX"/><use transform="matrix(0.05,0,0,0.05,54.900000000000006,0)" xlink:href="#bc"/><use transform="matrix(0.05,0,0,0.05,64.9,0)" xlink:href="#bd"/><use transform="matrix(0.05,0,0,0.05,74.9,0)" xlink:href="#bu"/><use transform="matrix(0.05,0,0,0.05,84.9,0)" xlink:href="#aJ"/><use transform="matrix(0.05,0,0,0.05,90.85000000000001,0)" xlink:href="#aR"/></g><path fill="#333" d="M30 0v-248h187v28H63v79h144v27H63v87h162V0H30" id="bw"/><g id="P"><use transform="matrix(0.05,0,0,0.05,0,0)" xlink:href="#bw"/><use transform="matrix(0.05,0,0,0.05,12,0)" xlink:href="#bd"/><use transform="matrix(0.05,0,0,0.05,22,0)" xlink:href="#bk"/><use transform="matrix(0.05,0,0,0.05,32,0)" xlink:href="#aX"/><use transform="matrix(0.05,0,0,0.05,35.95,0)" xlink:href="#bd"/><use transform="matrix(0.05,0,0,0.05,45.95,0)" xlink:href="#aH"/><use transform="matrix(0.05,0,0,0.05,55.95,0)" xlink:href="#aH"/><use transform="matrix(0.05,0,0,0.05,65.95,0)" xlink:href="#aI"/></g><g id="Q"><use transform="matrix(0.05,0,0,0.05,0,0)" xlink:href="#bv"/><use transform="matrix(0.05,0,0,0.05,8.950000000000001,0)" xlink:href="#aH"/><use transform="matrix(0.05,0,0,0.05,18.950000000000003,0)" xlink:href="#aG"/><use transform="matrix(0.05,0,0,0.05,27.950000000000003,0)" xlink:href="#aM"/><use transform="matrix(0.05,0,0,0.05,32.95,0)" xlink:href="#aH"/><use transform="matrix(0.05,0,0,0.05,42.95,0)" xlink:href="#aI"/></g><g id="R"><use transform="matrix(0.05,0,0,0.05,0,0)" xlink:href="#aV"/><use transform="matrix(0.05,0,0,0.05,12.950000000000001,0)" xlink:href="#aN"/><use transform="matrix(0.05,0,0,0.05,22.950000000000003,0)" xlink:href="#aM"/><use transform="matrix(0.05,0,0,0.05,27.950000000000003,0)" xlink:href="#aN"/></g><g id="S"><use transform="matrix(0.05,0,0,0.05,0,0)" xlink:href="#bw"/><use transform="matrix(0.05,0,0,0.05,12,0)" xlink:href="#bd"/><use transform="matrix(0.05,0,0,0.05,22,0)" xlink:href="#bk"/><use transform="matrix(0.05,0,0,0.05,32,0)" xlink:href="#aX"/><use transform="matrix(0.05,0,0,0.05,35.95,0)" xlink:href="#bd"/><use transform="matrix(0.05,0,0,0.05,45.95,0)" xlink:href="#aH"/><use transform="matrix(0.05,0,0,0.05,55.95,0)" xlink:href="#aH"/><use transform="matrix(0.05,0,0,0.05,65.95,0)" xlink:href="#aI"/></g><path fill="#333" d="M266 0h-40l-56-210L115 0H75L2-248h35L96-30l15-64 43-154h32l59 218 59-218h35" id="bx"/><g id="T"><use transform="matrix(0.05,0,0,0.05,0,0)" xlink:href="#bx"/><use transform="matrix(0.05,0,0,0.05,16.599999999999998,0)" xlink:href="#aH"/><use transform="matrix(0.05,0,0,0.05,26.599999999999994,0)" xlink:href="#aL"/><use transform="matrix(0.05,0,0,0.05,36.599999999999994,0)" xlink:href="#aV"/><use transform="matrix(0.05,0,0,0.05,49.55,0)" xlink:href="#aH"/><use transform="matrix(0.05,0,0,0.05,59.54999999999999,0)" xlink:href="#bh"/></g><path d="M15-91v-56l181-69v40L49-119l147 57v40" id="by"/><path d="M25-224v-37h50v37H25zM25 0v-190h50V0H25" id="bz"/><path d="M135-194c87-1 58 113 63 194h-50c-7-57 23-157-34-157-59 0-34 97-39 157H25l-1-190h47c2 12-1 28 3 38 12-26 28-41 61-42" id="bA"/><path d="M115-3C79 11 28 4 28-45v-112H4v-33h27l15-45h31v45h36v33H77v99c-1 23 16 31 38 25v30" id="bB"/><path d="M185-48c-13 30-37 53-82 52C43 2 14-33 14-96s30-98 90-98c62 0 83 45 84 108H66c0 31 8 55 39 56 18 0 30-7 34-22zm-45-69c5-46-57-63-70-21-2 6-4 13-4 21h74" id="bC"/><path d="M135-150c-39-12-60 13-60 57V0H25l-1-190h47c2 13-1 29 3 40 6-28 27-53 61-41v41" id="bD"/><path d="M121-226c-27-7-43 5-38 36h38v33H83V0H34v-157H6v-33h28c-9-59 32-81 87-68v32" id="bE"/><path d="M133-34C117-15 103 5 69 4 32 3 11-16 11-54c-1-60 55-63 116-61 1-26-3-47-28-47-18 1-26 9-28 27l-52-2c7-38 36-58 82-57s74 22 75 68l1 82c-1 14 12 18 25 15v27c-30 8-71 5-69-32zm-48 3c29 0 43-24 42-57-32 0-66-3-65 30 0 17 8 27 23 27" id="bF"/><path d="M190-63c-7 42-38 67-86 67-59 0-84-38-90-98-12-110 154-137 174-36l-49 2c-2-19-15-32-35-32-30 0-35 28-38 64-6 74 65 87 74 30" id="bG"/><path d="M15-22v-40l146-57-146-57v-40l181 69v56" id="bH"/><g id="U"><use transform="matrix(0.05,0,0,0.05,0,0)" xlink:href="#by"/><use transform="matrix(0.05,0,0,0.05,10.5,0)" xlink:href="#by"/><use transform="matrix(0.05,0,0,0.05,21,0)" xlink:href="#bz"/><use transform="matrix(0.05,0,0,0.05,26,0)" xlink:href="#bA"/><use transform="matrix(0.05,0,0,0.05,36.95,0)" xlink:href="#bB"/><use transform="matrix(0.05,0,0,0.05,42.900000000000006,0)" xlink:href="#bC"/><use transform="matrix(0.05,0,0,0.05,52.900000000000006,0)" xlink:href="#bD"/><use transform="matrix(0.05,0,0,0.05,59.900000000000006,0)" xlink:href="#bE"/><use transform="matrix(0.05,0,0,0.05,65.85000000000001,0)" xlink:href="#bF"/><use transform="matrix(0.05,0,0,0.05,75.85000000000001,0)" xlink:href="#bG"/><use transform="matrix(0.05,0,0,0.05,85.85000000000001,0)" xlink:href="#bC"/><use transform="matrix(0.05,0,0,0.05,95.85000000000001,0)" xlink:href="#bH"/><use transform="matrix(0.05,0,0,0.05,106.35000000000001,0)" xlink:href="#bH"/></g><path d="M24 0v-248h52V0H24" id="bI"/><path d="M169-182c-1-43-94-46-97-3 18 66 151 10 154 114 3 95-165 93-204 36-6-8-10-19-12-30l50-8c3 46 112 56 116 5-17-69-150-10-154-114-4-87 153-88 188-35 5 8 8 18 10 28" id="bJ"/><g id="V"><use transform="matrix(0.05,0,0,0.05,0,0)" xlink:href="#bI"/><use transform="matrix(0.05,0,0,0.05,5,0)" xlink:href="#bJ"/><use transform="matrix(0.05,0,0,0.05,17,0)" xlink:href="#bB"/><use transform="matrix(0.05,0,0,0.05,22.95,0)" xlink:href="#bF"/><use transform="matrix(0.05,0,0,0.05,32.95,0)" xlink:href="#bE"/><use transform="matrix(0.05,0,0,0.05,38.900000000000006,0)" xlink:href="#bE"/></g><path fill="#333" d="M143 0L79-87 56-68V0H24v-261h32v163l83-92h37l-77 82L181 0h-38" id="bK"/><g id="W"><use transform="matrix(0.05,0,0,0.05,0,0)" xlink:href="#aO"/><use transform="matrix(0.05,0,0,0.05,9,0)" xlink:href="#bb"/><use transform="matrix(0.05,0,0,0.05,19,0)" xlink:href="#aH"/><use transform="matrix(0.05,0,0,0.05,29,0)" xlink:href="#aO"/><use transform="matrix(0.05,0,0,0.05,38,0)" xlink:href="#bK"/><use transform="matrix(0.05,0,0,0.05,47,0)" xlink:href="#aK"/><use transform="matrix(0.05,0,0,0.05,59,0)" xlink:href="#aM"/><use transform="matrix(0.05,0,0,0.05,64,0)" xlink:href="#aM"/><use transform="matrix(0.05,0,0,0.05,69,0)" xlink:href="#aH"/><use transform="matrix(0.05,0,0,0.05,79,0)" xlink:href="#bd"/><use transform="matrix(0.05,0,0,0.05,89,0)" xlink:href="#bf"/><use transform="matrix(0.05,0,0,0.05,99,0)" xlink:href="#aN"/><use transform="matrix(0.05,0,0,0.05,109,0)" xlink:href="#bd"/><use transform="matrix(0.05,0,0,0.05,119,0)" xlink:href="#aO"/><use transform="matrix(0.05,0,0,0.05,128,0)" xlink:href="#aH"/><use transform="matrix(0.05,0,0,0.05,138,0)" xlink:href="#aJ"/><use transform="matrix(0.05,0,0,0.05,143.95,0)" xlink:href="#aR"/></g><use transform="matrix(0.05,0,0,0.05,0,0)" xlink:href="#be" id="X"/><path fill="#333" d="M153-248C145-148 188 4 80 4 36 3 13-21 6-62l32-5c4 25 16 42 43 43 27 0 39-20 39-49v-147H72v-28h81" id="bL"/><g id="Y"><use transform="matrix(0.05,0,0,0.05,0,0)" xlink:href="#bk"/><use transform="matrix(0.05,0,0,0.05,10,0)" xlink:href="#aH"/><use transform="matrix(0.05,0,0,0.05,20,0)" xlink:href="#aM"/><use transform="matrix(0.05,0,0,0.05,25,0)" xlink:href="#bm"/><use transform="matrix(0.05,0,0,0.05,37,0)" xlink:href="#aM"/><use transform="matrix(0.05,0,0,0.05,42,0)" xlink:href="#aN"/><use transform="matrix(0.05,0,0,0.05,52,0)" xlink:href="#aW"/><use transform="matrix(0.05,0,0,0.05,56.650000000000006,0)" xlink:href="#aW"/><use transform="matrix(0.05,0,0,0.05,61.650000000000006,0)" xlink:href="#bL"/><use transform="matrix(0.05,0,0,0.05,70.65,0)" xlink:href="#bc"/><use transform="matrix(0.05,0,0,0.05,80.65,0)" xlink:href="#aL"/><use transform="matrix(0.05,0,0,0.05,90.65,0)" xlink:href="#aJ"/><use transform="matrix(0.05,0,0,0.05,96.60000000000001,0)" xlink:href="#aR"/></g><use transform="matrix(0.05,0,0,0.05,0,0)" xlink:href="#bo" id="Z"/><path fill="#333" d="M54-142c48-35 137-8 131 61C196 18 31 33 14-55l32-4c7 23 22 37 52 37 35-1 51-22 54-58 4-55-73-65-99-34H22l8-134h141v27H59" id="bM"/><use transform="matrix(0.05,0,0,0.05,0,0)" xlink:href="#bM" id="aa"/><path fill="#333" d="M33 0v-38h34V0H33" id="bN"/><g id="ab"><use transform="matrix(0.05,0,0,0.05,0,0)" xlink:href="#bN"/><use transform="matrix(0.05,0,0,0.05,5,0)" xlink:href="#bN"/></g><path fill="#333" d="M80-196l47-18 7 23-49 13 32 44-20 13-27-46-27 45-21-12 33-44-49-13 8-23 47 19-2-53h23" id="bO"/><use transform="matrix(0.05,0,0,0.05,0,0)" xlink:href="#bO" id="ac"/><g id="ad"><use transform="matrix(0.05,0,0,0.05,0,0)" xlink:href="#bu"/><use transform="matrix(0.05,0,0,0.05,10,0)" xlink:href="#bN"/><use transform="matrix(0.05,0,0,0.05,15,0)" xlink:href="#bN"/><use transform="matrix(0.05,0,0,0.05,20,0)" xlink:href="#bO"/></g></defs></g></svg>